<svg width="639" height="148" viewBox="0 0 639 148" fill="none" xmlns="http://www.w3.org/2000/svg">
<path d="M95.0578 47.5296L97.6983 52.8106C97.8995 54.9828 117.411 89.563 119.583 89.7775L105.45 132.754L105.504 132.754C105.933 132.754 108.014 132.307 108.269 132.053L169.316 69.5718C169.44 69.4477 169.539 69.3004 169.606 69.1382C169.674 68.976 169.708 68.8021 169.708 68.6265C169.708 68.4509 169.674 68.277 169.606 68.1148C169.539 67.9526 169.44 67.8052 169.316 67.6812L120.535 18.9001C120.28 18.6453 119.945 18.5112 119.583 18.5112C119.221 18.5112 118.886 18.6453 118.631 18.9001L92.8961 44.6075C92.6279 44.8891 95.0578 47.5296 95.0578 47.5296Z" fill="white"/>
<path fill-rule="evenodd" clip-rule="evenodd" d="M103.581 133.998C105.731 134.366 107.837 133.14 108.606 131.097L123.289 91.6368L123.303 91.585C123.414 91.1705 123.371 90.812 123.191 90.5L78.7891 13.5943C78.7015 13.4421 78.5847 13.3087 78.4454 13.2017C78.3061 13.0947 78.1472 13.0163 77.9775 12.9708C77.8079 12.9254 77.631 12.9138 77.4569 12.9368C77.2828 12.9599 77.1149 13.017 76.9629 13.1049L17.2185 47.5984C16.9065 47.7785 16.6902 48.0676 16.5965 48.4173C16.5028 48.767 16.5456 49.1255 16.7257 49.4376L61.1273 126.343C61.3298 126.675 61.6707 126.905 62.0662 126.984L103.581 133.998ZM64.7661 122.084L23.2665 50.2045L76.1877 19.6505L117.691 91.5366L103.867 128.691L64.7661 122.084ZM74.213 16.2301L74.2168 16.2368C74.2156 16.2346 74.2143 16.2323 74.213 16.2301Z" fill="white"/>
<path d="M78.8958 46.2148C77.5558 45.2181 76.0342 44.4922 74.4163 44.0779C72.7959 43.6609 71.1105 43.5592 69.4517 43.7783C67.7303 44.0031 66.0708 44.5677 64.5694 45.4391C62.4602 46.6569 60.7358 48.4225 59.5774 50.5459C59.3002 51.0539 59.0593 51.5752 58.8546 52.1098C58.2892 52.0198 57.7173 51.9678 57.1388 51.9539C54.7206 51.8954 52.3293 52.5059 50.2201 53.7237C48.7014 54.6005 47.3976 55.7411 46.3406 57.1215C45.3184 58.4532 44.5695 59.9523 44.1178 61.5707C43.6657 63.1787 43.5335 64.8597 43.7287 66.5186C43.9318 68.2438 44.4753 69.8866 45.3472 71.3968C46.1697 72.8215 47.3178 74.1381 48.7672 75.3148C49.9794 76.2978 51.4283 77.2068 53.0771 78.0175C55.6882 79.2993 58.8774 80.3673 62.5503 81.1959C68.6373 82.5701 74.0313 82.8329 74.2574 82.8392L75.6468 82.9041C76.2615 82.9314 76.8391 82.598 77.1228 82.052L77.7613 80.8163C77.8664 80.613 80.334 75.817 82.1917 69.8559C83.3105 66.2608 83.9803 62.9649 84.1757 60.0627C84.298 58.2294 84.2395 56.5177 83.99 54.9789C83.6957 53.1353 83.1295 51.4827 82.307 50.0581C81.4393 48.5454 80.2883 47.2533 78.8958 46.2148Z" fill="white"/>
<path d="M222.583 118.001V47.8571H199.516V35.6173H259.067V47.8571H235.294V118.001H222.583ZM310.447 56.2131V118.001H298.207V108.468C296.324 111.057 293.538 113.489 289.851 115.765C286.163 118.04 281.887 119.178 277.023 119.178C271.844 119.178 267.097 117.805 262.782 115.058C258.545 112.312 255.171 108.507 252.661 103.642C250.15 98.7779 248.894 93.2072 248.894 86.9304C248.894 80.6536 250.189 75.1221 252.778 70.336C255.367 65.4715 258.937 61.7054 263.488 59.0377C268.039 56.2916 273.217 54.9185 279.023 54.9185C283.339 54.9185 287.105 55.8601 290.322 57.7431C293.617 59.6262 296.245 61.823 298.207 64.3338V56.2131H310.447ZM279.847 107.997C283.613 107.997 286.909 107.095 289.733 105.29C292.558 103.407 294.755 100.896 296.324 97.7579C297.893 94.5411 298.678 90.9319 298.678 86.9304C298.678 83.0074 297.893 79.4767 296.324 76.3382C294.755 73.1998 292.558 70.7283 289.733 68.9237C286.909 67.0407 283.613 66.0991 279.847 66.0991C276.238 66.0991 273.021 67.0014 270.196 68.806C267.372 70.6106 265.175 73.0821 263.606 76.2205C262.037 79.359 261.252 82.9289 261.252 86.9304C261.252 90.9319 262.037 94.5411 263.606 97.7579C265.175 100.896 267.372 103.407 270.196 105.29C273.021 107.095 276.238 107.997 279.847 107.997ZM328.784 128.24C331.138 130.044 334.08 131.496 337.611 132.594C341.142 133.693 344.594 134.242 347.968 134.242C354.323 134.242 359.188 132.673 362.562 129.534C365.935 126.474 367.622 121.845 367.622 115.647V108.115C366.524 109.998 364.955 111.802 362.915 113.528C360.875 115.176 358.482 116.549 355.736 117.648C352.989 118.668 350.126 119.178 347.144 119.178C341.416 119.178 336.238 117.805 331.609 115.058C326.98 112.312 323.292 108.507 320.546 103.642C317.878 98.7779 316.545 93.2465 316.545 87.0481C316.545 80.7712 317.878 75.2398 320.546 70.4537C323.214 65.5892 326.823 61.7838 331.374 59.0377C336.003 56.2916 341.142 54.9185 346.791 54.9185C351.499 54.9185 355.657 55.9777 359.266 58.0962C362.954 60.1362 365.739 62.3723 367.622 64.8045V56.2131H379.744V114.235C379.744 121.61 378.254 127.534 375.272 132.006C372.369 136.557 368.485 139.852 363.621 141.892C358.835 144.01 353.617 145.07 347.968 145.07C343.574 145.07 339.18 144.363 334.787 142.951C330.471 141.617 326.98 139.852 324.312 137.655L328.784 128.24ZM348.439 65.9815C344.673 65.9815 341.299 66.923 338.317 68.806C335.414 70.6106 333.1 73.1214 331.374 76.3382C329.726 79.4767 328.902 83.0466 328.902 87.0481C328.902 91.0496 329.726 94.6195 331.374 97.7579C333.1 100.896 335.414 103.407 338.317 105.29C341.299 107.095 344.673 107.997 348.439 107.997C352.362 107.997 355.775 107.095 358.678 105.29C361.659 103.486 363.974 101.014 365.622 97.8756C367.269 94.6587 368.093 91.0496 368.093 87.0481C368.093 82.9681 367.269 79.359 365.622 76.2205C363.974 73.0821 361.659 70.6106 358.678 68.806C355.775 66.923 352.362 65.9815 348.439 65.9815ZM424.986 35.6173C431.342 35.6173 436.912 36.7157 441.698 38.9126C446.563 41.031 450.604 44.0125 453.821 47.8571C457.037 51.6232 459.47 56.017 461.117 61.0384C462.765 65.9815 463.589 71.2383 463.589 76.809C463.589 84.3412 462.137 91.2457 459.234 97.5226C456.331 103.721 452.016 108.703 446.288 112.469C440.561 116.157 433.46 118.001 424.986 118.001H392.739V35.6173H424.986ZM424.398 105.761C430.596 105.761 435.618 104.466 439.462 101.877C443.307 99.2095 446.131 95.6787 447.936 91.2849C449.741 86.8912 450.643 82.0658 450.643 76.809C450.643 71.6306 449.741 66.8445 447.936 62.4507C446.131 58.0569 443.307 54.5262 439.462 51.8586C435.618 49.1909 430.596 47.8571 424.398 47.8571H405.45V105.761H424.398ZM528.207 56.2131V118.001H515.967V108.468C514.084 111.057 511.298 113.489 507.611 115.765C503.923 118.04 499.647 119.178 494.782 119.178C489.604 119.178 484.857 117.805 480.542 115.058C476.305 112.312 472.931 108.507 470.42 103.642C467.91 98.7779 466.654 93.2072 466.654 86.9304C466.654 80.6536 467.949 75.1221 470.538 70.336C473.127 65.4715 476.697 61.7054 481.248 59.0377C485.799 56.2916 490.977 54.9185 496.783 54.9185C501.099 54.9185 504.865 55.8601 508.081 57.7431C511.377 59.6262 514.005 61.823 515.967 64.3338V56.2131H528.207ZM497.607 107.997C501.373 107.997 504.668 107.095 507.493 105.29C510.318 103.407 512.515 100.896 514.084 97.7579C515.653 94.5411 516.438 90.9319 516.438 86.9304C516.438 83.0074 515.653 79.4767 514.084 76.3382C512.515 73.1998 510.318 70.7283 507.493 68.9237C504.668 67.0407 501.373 66.0991 497.607 66.0991C493.998 66.0991 490.781 67.0014 487.956 68.806C485.132 70.6106 482.935 73.0821 481.366 76.2205C479.797 79.359 479.012 82.9289 479.012 86.9304C479.012 90.9319 479.797 94.5411 481.366 97.7579C482.935 100.896 485.132 103.407 487.956 105.29C490.781 107.095 493.998 107.997 497.607 107.997ZM557.843 118.001H545.72V67.9822H532.892V56.2131H545.72V40.4426H557.843V56.2131H572.201V67.9822H557.843V118.001ZM628.681 109.88H628.564C626.053 112.312 622.601 114.47 618.207 116.353C613.813 118.236 609.223 119.178 604.437 119.178C598.003 119.178 592.315 117.844 587.372 115.176C582.507 112.43 578.702 108.703 575.956 103.996C573.21 99.2095 571.837 93.7957 571.837 87.7542C571.837 80.8497 573.288 74.9652 576.191 70.1006C579.094 65.1576 582.939 61.3915 587.725 58.8023C592.511 56.1347 597.729 54.8008 603.378 54.8008C608.556 54.8008 613.264 56.0954 617.501 58.6846C621.738 61.1954 625.111 64.6869 627.622 69.1591C630.133 73.6313 631.388 78.849 631.388 84.812L631.271 89.9904H583.959C584.665 95.561 586.94 99.9941 590.785 103.289C594.708 106.506 599.651 108.115 605.614 108.115C609.929 108.115 613.421 107.33 616.088 105.761C618.756 104.113 620.953 102.544 622.679 101.053L628.681 109.88ZM603.378 65.9815C598.749 65.9815 594.708 67.0799 591.256 69.2768C587.803 71.3952 585.528 75.0829 584.43 80.3397H619.031V79.5159C618.795 76.8482 617.893 74.4944 616.324 72.4544C614.833 70.4145 612.95 68.8453 610.675 67.7468C608.399 66.5699 605.967 65.9815 603.378 65.9815Z" fill="white"/>
</svg>
